# xmcd CD database file
#
# Track frame offsets:
#	182
#	16330
#	59205
#	95120
#	116750
#	143670
#	155630
#	186947
#	214232
#	245560
#	286827
#
# Disc length: 3977 seconds
#
# Revision: 2
# Processed by: cddbd v1.5.2PL0 Copyright (c) Steve Scherf et al.
# Submitted via: CDex 1.70beta2
#
DISCID=ab0f870b
DTITLE=Daniel Humair - Quatre Fois Trois
DYEAR=1996
DGENRE=Jazz
TTITLE0=Casseroles
TTITLE1=Helligoli
TTITLE2=Les Oignons
TTITLE3=For Flying Out Proud
TTITLE4=Meditations De Thais
TTITLE5=Huchedu - Part 1
TTITLE6=From Time To Time Free
TTITLE7=Bas De Lou
TTITLE8=Huchedu - Part 2 - Part 3
TTITLE9=La Galinette
TTITLE10=Kel Essouf
EXTD=YEAR: 1996
EXTT0=
EXTT1=
EXTT2=
EXTT3=
EXTT4=
EXTT5=
EXTT6=
EXTT7=
EXTT8=
EXTT9=
EXTT10=
PLAYORDER=
